<svg width="440" height="128" viewBox="0 0 440 128" fill="none" xmlns="http://www.w3.org/2000/svg" role="img" aria-label="Nonni's Placement Services">
  <defs>
    <linearGradient id="nonnisIconP" x1="18" y1="20" x2="104" y2="108" gradientUnits="userSpaceOnUse">
      <stop stop-color="#B56F28"/>
      <stop offset="1" stop-color="#D18F47"/>
    </linearGradient>
  </defs>
  <!-- Icon mark -->
  <g transform="translate(8,12) scale(0.86)">
    <path fill="url(#nonnisIconP)" fill-rule="evenodd" d="
      M60 16 L104 52 Q108 55 108 61 L108 96 Q108 104 100 104 L20 104 Q12 104 12 96 L12 61 Q12 55 16 52 Z
      M60 86 C48 76 40 68 40 60 C40 53 46 49 52 51 C56 52 59 55 60 59 C61 55 64 52 68 51 C74 49 80 53 80 60 C80 68 72 76 60 86 Z
    "/>
  </g>
  <!-- Wordmark -->
  <text x="132" y="70" font-family="Fraunces, Georgia, 'Times New Roman', serif" font-size="52" font-weight="600" letter-spacing="-1.5" fill="#2B1B0E">nonni&#8217;s</text>
  <text x="134" y="98" font-family="Inter, system-ui, -apple-system, sans-serif" font-size="14.5" font-weight="600" letter-spacing="6" fill="#8E6D49">PLACEMENT</text>
</svg>
